<svg
              aria-hidden="true"
              class="close"
              width="24"
              height="25"
              viewBox="0 0 24 25"
              fill="none"
              xmlns="http://www.w3.org/2000/svg"
            >
              <path
                d="M6.43635 17.804C6.50318 17.8703 6.58245 17.9228 6.6696 17.9584C6.75674 17.994 6.85006 18.012 6.9442 18.0115C7.13309 18.0116 7.31437 17.937 7.44848 17.804L12.0013 13.2512L16.5541 17.804C16.6882 17.937 16.8694 18.0116 17.0583 18.0115C17.1997 18.0116 17.3379 17.9698 17.4555 17.8914C17.5731 17.8131 17.6649 17.7016 17.7192 17.5711C17.7736 17.4407 17.788 17.297 17.7608 17.1583C17.7335 17.0196 17.6658 16.8921 17.5662 16.7919L13.0134 12.2391L17.5662 7.68632C17.7004 7.5521 17.7758 7.37006 17.7758 7.18025C17.7758 6.99044 17.7004 6.8084 17.5662 6.67419C17.432 6.53997 17.2499 6.46457 17.0601 6.46457C16.8703 6.46457 16.6883 6.53997 16.5541 6.67419L12.0013 11.227L7.44848 6.67419C7.31426 6.53997 7.13222 6.46457 6.94241 6.46457C6.7526 6.46457 6.57056 6.53997 6.43635 6.67419C6.30213 6.8084 6.22673 6.99044 6.22673 7.18025C6.22673 7.37006 6.30213 7.5521 6.43635 7.68632L10.9891 12.2391L6.43635 16.7919C6.36984 16.8583 6.31708 16.9372 6.28109 17.0241C6.24509 17.1109 6.22656 17.204 6.22656 17.298C6.22656 17.392 6.24509 17.485 6.28109 17.5719C6.31708 17.6587 6.36984 17.7376 6.43635 17.804Z"
                fill="black"
              ></path>
            </svg>